# xmcd
#
# Track frame offsets: 
#        150
#        17656
#        35862
#        49846
#        70441
#        88276
#        103321
#        114025
#        129238
#        148470
#        160488
#
# Disc length: 2347 seconds
#
# Revision: 0
# Processed by: cddbd v1.5.2PL0 Copyright (c) Steve Scherf et al.
# Submitted via: ExactAudioCopyFreeDBPlugin 1.0
#
DISCID=a409290b
DTITLE=Guy Verlinde - All Is Forgiven
DYEAR=2019
DGENRE=Blues
TTITLE0=All Is Forgiven
TTITLE1=Dance Through The Night
TTITLE2=Play Your Blues
TTITLE3=Gotta Let Go
TTITLE4=Everything Means Nothing
TTITLE5=I Shall Be Free
TTITLE6=Tiny's Parlor Rag
TTITLE7=Solitude and Grace
TTITLE8=Won't Be Fooled Again
TTITLE9=Ain't Nobody Gonna Hold Me Down
TTITLE10=Distant Lullaby
EXTD=
EXTT0=
EXTT1=
EXTT2=
EXTT3=
EXTT4=
EXTT5=
EXTT6=
EXTT7=
EXTT8=
EXTT9=
EXTT10=
PLAYORDER=
